Leona Lewis - Happy [x264][2009] ~ [007x]

General
Complete name                    : Leona Lewis - Happy [x264][2009] ~ [007x].mkv
Format                           : Matroska
File size                        : 70.4 MiB
Duration                         : 3mn 54s
Overall bit rate                 : 2 513 Kbps
Encoded date                     : UTC 2009-11-14 13:46:26
Writing application              : mkvmerge v2.9.7 ('Tenderness') built on Jul  1 2009 18:43:35
Writing library                  : libebml v0.7.7 + libmatroska v0.8.1

Video
ID                               : 2
Format                           : AVC
Format/Info                      : Advanced Video Codec
Format profile                   : Main@L3.0
Format settings, CABAC           : Yes
Format settings, ReFrames        : 5 frames
Muxing mode                      : Container profile=Unknown@3.0
Codec ID                         : V_MPEG4/ISO/AVC
Duration                         : 3mn 54s
Bit rate                         : 2 289 Kbps
Width                            : 704 pixels
Height                           : 400 pixels
Display aspect ratio             : 16:9
Frame rate                       : 25.000 fps
Resolution                       : 24 bits
Colorimetry                      : 4:2:0
Scan type                        : Progressive
Bits/(Pixel*Frame)               : 0.325
Stream size                      : 64.1 MiB (91%)
Writing library                  : x264 core 65 r1057M 5f8a149
Encoding settings                : cabac=1 / ref=5 / deblock=1:0:0 / analyse=0x1:0x111 / me=umh / subme=9 / psy_rd=1.0:0.0 / mixed_ref=0 / me_range=16 / chroma_me=1 / trellis=2 / 8x8dct=0 / cqm=0 / deadzone=21,11 / chroma_qp_offset=-2 / threads=6 / nr=0 / decimate=1 / mbaff=0 / bframes=9 / b_pyramid=0 / b_adapt=1 / b_bias=0 / direct=2 / wpredb=0 / keyint=250 / keyint_min=25 / scenecut=40(pre) / rc=cqp / qp=19 / ip_ratio=1.40 / pb_ratio=1.30 / aq=0
Language                         : English

Audio
ID                               : 1
Format                           : MPEG Audio
Format version                   : Version 1
Format profile                   : Layer 3
Codec ID                         : A_MPEG/L3
Codec ID/Hint                    : MP3
Duration                         : 3mn 54s
Bit rate mode                    : Variable
Bit rate                         : 174 Kbps
Minimum bit rate                 : 32.0 Kbps
Channel(s)                       : 2 channels
Sampling rate                    : 44.1 KHz
Resolution                       : 16 bits
Stream size                      : 4.86 MiB (7%)
Writing library                  : LAME3.97
Encoding settings                : -m j -V 2 -q 3 -lowpass 18.6 --vbr-new -b 32

Screen Shot :--------------------------------------------------------------------------------

Greets to Skirgsk 2nafish and Darkfib3r (You guys are the Best around)

----------------------------------------------------------------------------

